<svg width="1200" height="400" viewBox="0 0 1200 400" xmlns="http://www.w3.org/2000/svg">
  <defs>
    <linearGradient id="bannerGradient" x1="0%" y1="0%" x2="100%" y2="100%">
      <stop offset="0%" style="stop-color:#1a1a2e;stop-opacity:1" />
      <stop offset="50%" style="stop-color:#16213e;stop-opacity:1" />
      <stop offset="100%" style="stop-color:#0f3460;stop-opacity:1" />
    </linearGradient>
    <pattern id="musicPattern" x="0" y="0" width="100" height="100" patternUnits="userSpaceOnUse">
      <circle cx="20" cy="20" r="3" fill="rgba(255,255,255,0.1)"/>
      <circle cx="80" cy="80" r="2" fill="rgba(255,255,255,0.1)"/>
      <rect x="40" y="40" width="20" height="20" fill="rgba(255,255,255,0.05)"/>
    </pattern>
  </defs>
  <rect width="1200" height="400" fill="url(#bannerGradient)"/>
  <rect width="1200" height="400" fill="url(#musicPattern)"/>
  <g transform="translate(100, 100)">
    <!-- Note de musique stylisée -->
    <circle cx="50" cy="50" r="15" fill="rgba(255,255,255,0.2)"/>
    <rect x="65" y="20" width="8" height="60" fill="rgba(255,255,255,0.2)"/>
    <circle cx="50" cy="50" r="8" fill="rgba(255,255,255,0.4)"/>
  </g>
  <g transform="translate(300, 150)">
    <circle cx="50" cy="50" r="12" fill="rgba(255,255,255,0.15)"/>
    <rect x="62" y="25" width="6" height="50" fill="rgba(255,255,255,0.15)"/>
    <circle cx="50" cy="50" r="6" fill="rgba(255,255,255,0.3)"/>
  </g>
  <g transform="translate(500, 120)">
    <circle cx="50" cy="50" r="18" fill="rgba(255,255,255,0.1)"/>
    <rect x="68" y="15" width="10" height="70" fill="rgba(255,255,255,0.1)"/>
    <circle cx="50" cy="50" r="10" fill="rgba(255,255,255,0.25)"/>
  </g>
</svg>